# xmcd CD Database Entry
#
# Track frame offsets:
# 150
# 19753
# 38483
# 58236
# 65956
# 89798
# 113128
# 131871
# 143849
# 161914
#
# Disc length: 2579 seconds
#
# Revision: 1
# Processed by: cddbd v1.4PL0 Copyright (c) Steve Scherf et al.
# Submitted via: tcd 2.0b
#
DISCID=990a110a
DTITLE=GEORGE MICHAEL/ Songs from the last century
DYEAR=1900
DGENRE=
TTITLE0=Brother can you spare a dime
TTITLE1=Roxanne
TTITLE2=You've changed
TTITLE3=My baby just cares for me
TTITLE4=The first time ever I saw your face
TTITLE5=Miss Sarajevo
TTITLE6=I remember you
TTITLE7=Secret love
TTITLE8=Wild is the wind
TTITLE9=Where or when
EXTD=
EXTT0=
EXTT1=
EXTT2=
EXTT3=
EXTT4=
EXTT5=
EXTT6=
EXTT7=
EXTT8=
EXTT9=
PLAYORDER=
